<svg xmlns="http://www.w3.org/2000/svg" xml:space="preserve" id="Layer_1" x="0" y="0" style="enable-background:new 0 0 1920 1080" version="1.1" viewBox="0 0 1920 1080"><style>.st0{fill:#453014}</style><path d="m820.37 361.54-6.46 2.58h7.36c-.51-1.51-.85-2.41-.9-2.58zm33.15 354.34v3.93h10.68v-3.93h-10.68zm10.62-356.42-10.56 1.46c0 .06.17 1.18.39 3.2h10.68c-.23-2.75-.45-4.38-.51-4.66zm25.9 356.42V717h10.68v-1.12h-10.68zm16.13-359.9-10.34 2.81c.11.39.62 2.3 1.57 5.34h11.29c-1.62-5.06-2.46-8.04-2.52-8.15zm11.35 359.9c-.22 2.3-.22 3.76-.22 3.93h6.74c0-.06 0-1.52.28-3.93h-6.8zm28.99-355.69h-6.74c0 .22 0 1.63.17 3.93h6.8c-.23-2.47-.23-3.87-.23-3.93zm26.64 355.69h-6.8c.34 2.25 1.01 4.16 2.08 5.79l5.62-3.71c-.4-.62-.73-1.3-.9-2.08zm12.59-356.42-6.52 1.46c.06.34.34 1.46.73 3.2h6.91c-.68-2.86-1.07-4.55-1.12-4.66zm22.36 4.33-.11.06.11.28h.11l-.11-.34zm26.24 352.09h-11.35c0 .17.11.34.17.45 6.86 13.71 20.57 13.88 21.13 13.88l.06-9.55c-.29-.01-5.74-.18-10.01-4.78zm41.69 0V717h9.55v-1.12h-9.55zm-11.35-365.92-8.15 13.6 8.77-13.2-.62-.4zm38.04 7.42v6.74h12.36v-6.74h-12.36zm0 358.5v6.74h12.36v-6.74h-12.36zm-78.33-359.34-.06.06 1.35 2.87-1.29-2.93z" class="st0"/><path d="m829.08 714.58-7.87-.79c4.33-43.32-1.35-65.8-6.91-87.49-1.52-6.12-3.03-11.91-4.27-18.09-4.27-21.41-3.76-40.85-3.2-61.47.17-6.8.34-13.71.34-20.79 0-21.8 3.26-43.15 7.42-70.18 1.24-8.09 2.53-16.69 3.88-25.9 5.39-37.7-5.28-65.12-5.39-65.41l.84-.34 6.46-2.58c.06.17.39 1.07.9 2.58 2.7 7.92 9.78 33.32 4.94 66.87-1.29 9.22-2.64 17.87-3.88 26.02-4.1 26.63-7.3 47.76-7.3 68.95 0 7.14-.17 14.1-.34 21.02-.56 20.12-1.01 39.16 3.09 59.67 1.18 6.01 2.64 11.69 4.16 17.7 5.44 21.34 11.57 45.56 7.13 90.23zM852.68 588.72c1.8 3.82 11.52 25.51 11.52 52.43v78.67h-10.68v-78.67c0-26.41-10.56-47.99-10.68-48.21l-.39-1.07c-12.19-48.72-4.5-97.49 5.56-142.95 9.1-40.91 6.91-74.51 5.96-84.79-.22-2.02-.39-3.15-.39-3.2l10.56-1.46c.06.28.28 1.91.51 4.66 1.12 11.97 3.03 45.68-6.18 87.15-9.78 43.99-17.26 91.08-5.79 137.44zM961.74 596.19c-13.15 21.02-25.01 37.09-34.56 50.07-10.68 14.44-18.37 24.84-21.13 33.1-4.61 13.71-5.23 31.8-5.34 36.52V717h-10.68v-1.12c.11-4.94.73-24.44 5.9-39.9 3.26-9.83 11.41-20.85 22.64-36.07 9.44-12.81 21.18-28.71 34.05-49.33 25.74-41.19 6.24-105.81-5.51-123.45-28.38-37.87-44.78-86.81-49.73-103-.96-3.03-1.46-4.94-1.57-5.34l10.34-2.81c.06.11.9 3.09 2.53 8.15 5.73 18.15 21.58 62.71 47.14 96.82 13.45 20.11 34.58 89.39 5.92 135.24z" class="st0"/><path d="M939.15 502.91c-2.08-16.74-8.09-28.94-17.93-36.24-12.36-9.22-26.02-7.08-26.58-6.97l-.67.17c-19.72 6.57-25.57 20.96-31.19 76.87-2.58 26.18 1.69 45.63 12.81 57.88 8.54 9.5 21.24 14.5 36.64 14.5h.39l.34-.06c38.67-6.46 31.76-61.75 26.19-106.15zm-27.31 97.21c-12.81-.06-22.76-3.93-29.61-11.52-9.33-10.28-12.81-27.42-10.45-50.96 5.68-56.98 11.29-64.56 24.61-69.11 1.8-.17 11.24-.84 19.55 5.45 7.76 5.79 12.53 15.9 14.33 30.06 6.19 49.61 9.11 91.14-18.43 96.08z" class="st0"/><path d="M895.38 497.86s16.86-5.62 22.48 22.48 0 44.95-11.24 44.95-16.86-5.62-16.86-33.71c0-28.1 5.62-33.72 5.62-33.72z" class="st0"/><path d="M919.32 520.05c-2.25-11.07-6.41-18.43-12.47-21.97-6.07-3.48-11.69-1.69-11.91-1.63l-.62.34c-.62.62-6.01 6.86-6.01 34.78 0 26.3 4.61 35.18 18.32 35.18 3.65 0 6.86-1.57 9.27-4.55 6.06-7.37 7.3-22.76 3.42-42.15zm-12.7 43.78c-8.71 0-15.4-2.36-15.4-32.25 0-23.6 4.05-31.02 5-32.42 1.29-.28 5.11-.9 9.22 1.52 5.23 3.09 8.93 9.78 10.96 19.95 3.65 18.26 2.64 33.15-2.75 39.73-1.92 2.29-4.28 3.47-7.03 3.47zM979.5 626.42c-22.76 28.38-44.9 61.87-50.18 72.43-3.26 6.46-4.5 12.98-5 17.03-.28 2.42-.28 3.88-.28 3.93h-6.74c0-.17 0-1.63.22-3.93.51-4.5 1.85-12.25 5.73-20.06 5.56-11.07 27.65-44.45 50.97-73.67 18.09-22.59 17.19-57.03 16.41-87.43-.11-5.96-.28-11.74-.28-17.19 0-27.59-12.42-64.73-33.21-99.4-13.6-22.7-16.52-45.12-17.19-54-.17-2.3-.17-3.71-.17-3.93h6.74c0 .06 0 1.46.22 3.93.67 8.54 3.6 29.61 16.13 50.52 10.28 17.14 34.22 61.47 34.22 102.88 0 5.39.17 11.13.28 17.03.84 31.57 1.74 67.31-17.87 91.86z" class="st0"/><path d="M1013.38 620.52c-14.67 22.03-45.57 78.5-40.23 95.36.17.79.5 1.46.9 2.08l-5.62 3.71c-1.07-1.63-1.74-3.54-2.08-5.79-4.66-27.65 40.91-98.33 41.41-99.06 10.4-15.62 10.4-143.62 0-159.24-10.28-20.45-24.39-78.89-27.81-93.44-.39-1.74-.67-2.87-.73-3.2l6.52-1.46c.06.11.45 1.8 1.12 4.66 3.93 16.41 17.42 71.47 26.75 90.07 11.68 17.58 11.68 148.39-.23 166.31zM1008.83 365.75l-.73-1.63-.11-.28.11-.05.11.33zM1025.69 359.46l-1.35-2.86.05-.06zM1065.3 350.36l-8.77 13.2 8.15-13.6zM1043.22 648.28c-10.45 31.24-16.41 54.06-11.52 63.78.79 1.52 1.69 2.81 2.64 3.82 4.27 4.61 9.72 4.78 10 4.78l-.06 9.55c-.56 0-14.27-.17-21.13-13.88-.06-.11-.17-.28-.17-.45-6.12-12.81-.51-35.68 11.13-70.63 11.18-33.55 11.18-33.55 16.8-55.85 4.38-17.7 1.4-66.98.28-85.58-.28-4.55-.45-7.7-.45-8.77-.11-3.65-6.97-37.09-12.92-65.41l7.19-11.97c4.66 21.97 15.28 72.32 15.28 77.37 0 .96.17 3.93.45 8.2 1.24 20.73 4.21 69.34-.62 88.5-5.61 22.66-5.61 22.66-16.9 56.54zM1076.03 715.88h9.55V717h-9.55zM1102.72 357.38h12.36v365.24h-12.36z" class="st0"/><path d="m1065.3 350.36-8.77 13.2 8.15-13.6z" class="st0"/><path d="m1068.11 346.14-2.81 4.21-8.77 13.2-.34.56h-.06l-.06.11-16.24 27.08-12.08-27.2-2.08-4.66-1.35-2.87-4.94-10.45H766.14v387.71h387.71V346.14h-85.74zm67.77 369.74h-20.79v6.74h-12.36v-6.74h-17.14V717h-9.55v-1.12h-41.69c4.27 4.61 9.72 4.78 10 4.78l-.06 9.55c-.56 0-14.27-.17-21.13-13.88-.06-.11-.17-.28-.17-.45h-49.84c.17.79.5 1.46.9 2.08l-5.62 3.71c-1.07-1.63-1.74-3.54-2.08-5.79h-42.03c-.28 2.42-.28 3.88-.28 3.93h-6.74c0-.17 0-1.63.22-3.93h-16.8V717h-10.68v-1.12H864.2v3.93h-10.68v-3.93h-69.4V364.12h29.78l6.46-2.58c.06.17.39 1.07.9 2.58h32.7c-.22-2.02-.39-3.15-.39-3.2l10.56-1.46c.06.28.28 1.91.51 4.66h32.76c-.96-3.03-1.46-4.94-1.57-5.34l10.34-2.81c.06.11.9 3.09 2.53 8.15h31.24c-.17-2.3-.17-3.71-.17-3.93h6.74c0 .06 0 1.46.22 3.93h33.21c-.39-1.74-.67-2.87-.73-3.2l6.52-1.46c.06.11.45 1.8 1.12 4.66h21.24l-.11-.28.11-.06.11.34.62 1.63.23.56 28.43 63.89.34-.56 7.19-11.97 30.79-51.36.22-.39v-1.8h26.69v-6.74h12.36v6.74h20.79v351.76z" class="st0"/><path d="M1076.03 364.12h9.55v351.75h-9.55zM1076.03 365.92v.4h-.22zM1065.3 350.36l.29.29 3.18-4.51h-2.04l-2.05 3.82.01.42.37.24z" class="st0"/></svg>